Coordinates
version=1
nRows=9
nColumns=36
inDegrees=yes

Units are S.I. units (second, meters, Newtons, ...)
If the header above contains a line with 'inDegrees', this indicates whether rotational values are in degrees (yes) or radians (no).

endheader
time	pelvis_tilt	pelvis_list	pelvis_rotation	pelvis_tx	pelvis_ty	pelvis_tz	hip_flexion_r	hip_adduction_r	hip_rotation_r	knee_angle_r	knee_angle_r_beta	ankle_angle_r	subtalar_angle_r	mtp_angle_r	hip_flexion_l	hip_adduction_l	hip_rotation_l	knee_angle_l	knee_angle_l_beta	ankle_angle_l	subtalar_angle_l	mtp_angle_l	lumbar_extension	lumbar_bending	lumbar_rotation	arm_flex_r	arm_add_r	arm_rot_r	elbow_flex_r	pro_sup_r	arm_flex_l	arm_add_l	arm_rot_l	elbow_flex_l	pro_sup_l
      0.68000000	     -2.39119388	     -0.42353223	      3.75018871	      0.74282272	      1.00173268	     -0.22480677	      0.47267299	      0.28997256	    -12.25291303	     47.95767322	      0.83701930	     -5.04880279	    -14.70964883	     -6.89532991	     28.75493027	     -4.14874186	     -8.78367517	     24.42177177	      0.42624033	     -0.44013058	      0.92779122	     -6.89532991	    -16.59915721	    -26.00641764	      2.49439273	     -9.78666810	    -10.84263753	    -13.43999831	     71.99783406	    107.14316209	    -16.70873227	     -4.03525975	    -33.14840347	     29.03488127	     91.67643409
      0.69000000	     -2.74218480	     -0.27634857	      3.59023463	      0.75437398	      1.00353193	     -0.22789789	      2.73859893	     -0.47214179	    -12.66586076	     51.10337827	      0.89192221	     -7.57662808	    -17.15214201	     -6.91278622	     28.30037067	     -4.10436088	     -9.73107611	     24.45691344	      0.42685366	      0.55465706	      2.28007284	     -6.91278622	    -16.39313026	    -25.95137292	      2.07331106	    -10.05975027	    -10.48260890	    -13.01730106	     71.11063395	    107.35561785	    -16.19229976	     -4.03755425	    -33.21567153	     29.68107265	     91.78993263
      0.70000000	     -2.78724743	      0.00788250	      3.49539976	      0.76579521	      1.00593638	     -0.23128015	      4.60824866	     -1.45520339	    -13.16262929	     53.99385221	      0.94237050	     -8.59154709	    -18.05808214	     -6.91954789	     27.42033374	     -3.80358599	    -10.47716689	     24.30762630	      0.42424811	      1.37158037	      2.86278182	     -6.91954789	    -16.62480506	    -25.91932681	      1.57364090	    -10.41781041	    -10.08817159	    -12.76551777	     70.53175521	    107.44253229	    -15.49496704	     -4.08047408	    -33.15285049	     30.20704544	     91.87096422
      0.71000000	     -2.97947694	      0.14754366	      3.31022088	      0.77687734	      1.00840598	     -0.23434512	      6.68536022	     -2.17574646	    -13.38698840	     56.57365009	      0.98739646	     -9.02488486	    -18.93154254	     -6.92814528	     26.68835708	     -3.65551272	    -11.11413974	     24.06709634	      0.42005007	      2.02047060	      3.63421583	     -6.92814528	    -16.62039905	    -25.75793758	      1.20036825	    -10.70446530	     -9.70390909	    -12.43111773	     69.69302805	    107.57491522	    -14.82174348	     -4.12185436	    -33.12322285	     30.95002429	     91.97690632
      0.72000000	     -3.08424902	      0.23254041	      3.14069353	      0.78784039	      1.01120966	     -0.23737586	      8.61854828	     -2.78883291	    -13.58120770	     58.74264261	      1.02525252	     -8.83936605	    -19.36522290	     -6.93468754	     25.83598903	     -3.51603581	    -11.62960674	     23.73934393	      0.41432971	      2.62440200	      4.19661301	     -6.93468754	    -16.69026640	    -25.49204047	      0.84581842	    -11.00555983	     -9.34323068	    -12.11619359	     68.82614282	    107.68461788	    -14.08286497	     -4.17493875	    -33.08707411	     31.71225595	     92.07438390
      0.73000000	     -3.28145720	      0.22050467	      2.94343780	      0.79860881	      1.01407085	     -0.24020632	     10.65532333	     -3.22453756	    -13.61771385	     60.59203872	      1.05753058	     -7.79274425	    -18.72986793	     -6.95134699	     25.08063236	     -3.47098418	    -12.08874649	     23.34644524	      0.40747234	      3.05636719	      4.87697982	     -6.95134699	    -16.60671890	    -25.13119133	      0.38709111	    -11.13787684	     -9.03859302	    -11.57688972	     67.73054312	    108.03828430	    -13.49392691	     -4.17067852	    -33.34866568	     32.77203701	     92.19455248
      0.74000000	     -3.29084552	      0.22228886	      2.72490959	      0.80937515	      1.01743594	     -0.24300209	     12.40703491	     -3.60162984	    -13.64969946	     61.93090741	      1.08089824	     -7.10597094	    -18.42195130	     -6.95778549	     23.97462695	     -3.32185703	    -12.24339868	     22.66713025	      0.39561605	      3.50448777	      5.19832667	     -6.95778549	    -16.73386840	    -24.75261185	      0.14322038	    -11.45729155	     -8.69080567	    -11.30041042	     66.73853348	    108.14301008	    -12.66706038	     -4.25376235	    -33.29559693	     33.63580217	     92.29146572
      0.75000000	     -3.34201604	      0.23184626	      2.55008302	      0.82003941	      1.02079117	     -0.24582826	     14.18011831	     -3.98616248	    -13.62905163	     63.04096118	      1.10027234	     -5.46436610	    -16.53822744	     -6.97651398	     22.92059111	     -3.12553109	    -12.39718167	     21.93429247	      0.38282562	      3.64558168	      5.41203472	     -6.97651398	    -16.78178657	    -24.33329927	     -0.38195599	    -11.53139160	     -8.43263193	    -10.72334358	     65.58884070	    108.53000868	    -12.06717303	     -4.30072478	    -33.56612991	     34.83668081	     92.38488988
      0.76000000	     -3.32721910	      0.21555799	      2.33124540	      0.83068761	      1.02433839	     -0.24850351	     15.81251604	     -4.23391833	    -13.55283918	     63.67072416	      1.11126377	     -4.75787891	    -15.31689090	     -6.98827256	     21.71864859	     -2.93213124	    -12.44356472	     21.04701409	      0.36733969	      3.81863155	      5.58695789	     -6.98827256	    -16.87833829	    -23.87623027	     -0.71531606	    -11.71673236	     -8.12087999	    -10.40688032	     64.45829341	    108.71331598	    -11.33651588	     -4.41301846	    -33.54358979	     35.93738832	     92.48049267
